<?xml version="1.0" encoding="utf-8" ?>
<svg xmlns="http://www.w3.org/2000/svg" xmlns:xlink="http://www.w3.org/1999/xlink" width="1024" height="1024">
	<path fill="#F27820" d="M0 0L1024 0L1024 1024L0 1024L0 0ZM727.46 289.497C726.082 282.858 687.916 255.212 680.638 250.439C612.992 206.037 530.451 190.397 451.251 206.974C368.823 224.754 296.781 274.431 250.862 345.155C204.627 416.126 191.168 499.403 208.756 581.858C212.068 597.39 217.09 612.56 222.556 627.448C224.37 632.389 225.998 637.764 228.646 642.317C232.475 649.149 236.039 656.316 239.239 663.464C241.297 666.976 243.666 670.511 245.398 674.184C255.376 690.745 267.11 706.513 279.33 721.479C281.791 724.682 286.037 730.859 289.802 732.512C294.678 736.67 299.023 741.403 303.738 745.739C311.909 753.254 320.734 760.392 329.694 766.941C389.653 810.426 463.199 831.009 537.02 824.966C550.409 823.899 563.422 821.483 576.599 818.947C579.842 818.323 583.997 818.027 586.99 816.716C592.639 816.707 602.972 812.473 608.45 810.329C629.666 805.192 673.581 781.769 691.164 768.402C695.91 766.199 700.764 761.037 704.789 757.616C708.674 755.006 712.094 751.775 715.687 748.788C721.794 743.714 727.876 738.693 733.701 733.294C738.873 729.632 743.555 723.189 747.729 718.389C773.942 688.105 794.137 653.098 807.23 615.245C827.622 558.094 829.038 492.147 813.808 433.614C808.362 412.681 800.117 391.962 790.807 372.466C777.962 345.569 760.375 322.045 740.062 300.383C736.883 296.994 732.229 290.907 727.966 289.399C729.082 297.098 732.247 304.467 734.872 311.757C737.772 319.583 740.44 327.494 742.873 335.478C754.375 373.469 762.775 411.998 765.713 451.66C765.41 451.871 765.159 452.191 764.804 452.293C761.715 453.181 749.441 452.35 745.488 452.319C731.874 452.336 718.26 452.253 704.648 452.068C707.352 437.772 708.562 423.119 710.59 408.711L721.913 333.488C723.972 318.888 725.125 304.036 727.46 289.497Z"/>
	<path fill="#F2F2DC" d="M228.646 642.317C225.998 637.764 224.37 632.389 222.556 627.448C217.09 612.56 212.068 597.39 208.756 581.858C191.168 499.403 204.627 416.126 250.862 345.155C296.781 274.431 368.823 224.754 451.251 206.974C530.451 190.397 612.992 206.037 680.638 250.439C687.916 255.212 726.082 282.858 727.46 289.497C725.125 304.036 723.972 318.888 721.913 333.488L710.59 408.711C708.562 423.119 707.352 437.772 704.648 452.068L691.784 540.506L684.912 587.293C683.169 599.362 681.717 611.564 679.138 623.488C677.383 631.848 676.697 640.51 675.427 648.964L666.916 705.339C666.18 710.175 664.965 723.467 663.108 727.347C656.851 726.307 650.76 724.756 644.697 722.918C648.841 698.784 652.114 674.469 655.864 650.272C657.239 641.399 658.078 632.493 659.826 623.672C661.505 614.921 662.488 605.948 663.724 597.124C666.345 578.415 668.785 559.647 671.76 540.992C675.719 511.336 680.678 481.785 684.771 452.134L698.242 356.619C701.161 335.669 702.946 314.098 708.095 293.552C698.77 305.983 689.218 318.319 680.487 331.179C666.511 352.074 654.154 374.008 643.521 396.787C637.909 408.973 632.565 421.281 627.494 433.703C624.994 439.922 622.95 446.426 620.244 452.541C615.686 466.512 610.9 480.494 607.027 494.675C602.883 509.847 599.66 525.298 596.243 540.648C593.305 557.884 590.381 575.103 588.61 592.507C587.555 602.873 587.113 613.318 586.553 623.721C586.457 639.131 586.005 654.654 586.526 670.052C586.7 675.194 589.465 702.05 588.486 704.476C567.994 696.309 547.513 688.274 527.202 679.649C519.519 676.386 512.015 672.709 504.319 669.483C432.489 639.376 360.26 615.658 281.549 628.086C271.524 629.664 261.625 631.959 251.928 634.953C244.394 637.312 236.913 640.222 229.267 642.164L228.646 642.317ZM422.55 449.22C428.252 415.017 413.201 380.678 384.187 361.691C355.173 342.705 317.68 342.661 288.621 361.579C259.562 380.497 244.431 414.802 250.053 449.017C256.988 491.223 293.443 522.214 336.216 522.264C378.988 522.315 415.516 491.409 422.55 449.22Z"/>
	<path fill="#F2F2DC" d="M727.966 289.399C732.229 290.907 736.883 296.994 740.062 300.383C760.375 322.045 777.962 345.569 790.807 372.466C800.117 391.962 808.362 412.681 813.808 433.614C829.038 492.147 827.622 558.094 807.23 615.245C794.137 653.098 773.942 688.105 747.729 718.389C743.555 723.189 738.873 729.632 733.701 733.294C727.815 733.447 721.918 733.176 716.035 733.007C716.528 728.181 725.549 712.563 728.219 706.992C735.928 690.907 741.752 673.626 747.929 656.89C750.513 649.89 752.257 642.303 753.88 635.027C754.722 631.251 755.238 627.124 756.615 623.512C758.306 617.022 759.229 610.209 760.395 603.603C764.103 582.602 766.546 561.768 767.909 540.477C768.216 530.102 768.87 519.734 768.947 509.354C769.089 490.225 768.057 470.658 765.713 451.66C762.775 411.998 754.375 373.469 742.873 335.478C740.44 327.494 737.772 319.583 734.872 311.757C732.247 304.467 729.082 297.098 727.966 289.399Z"/>
	<path fill="#F27820" d="M684.771 452.134C663.303 452.003 641.695 451.708 620.244 452.541C622.95 446.426 624.994 439.922 627.494 433.703C632.565 421.281 637.909 408.973 643.521 396.787C654.154 374.008 666.511 352.074 680.487 331.179C689.218 318.319 698.77 305.983 708.095 293.552C702.946 314.098 701.161 335.669 698.242 356.619L684.771 452.134Z"/>
	<path fill="#F27820" d="M250.053 449.017C244.431 414.802 259.562 380.497 288.621 361.579C317.68 342.661 355.173 342.705 384.187 361.691C413.201 380.678 428.252 415.017 422.55 449.22C398.115 448.278 373.462 448.805 348.999 448.773C316.037 448.73 283.008 448.382 250.053 449.017Z"/>
	<path fill="#FACB4E" d="M250.053 449.017C283.008 448.382 316.037 448.73 348.999 448.773C373.462 448.805 398.115 448.278 422.55 449.22C415.516 491.409 378.988 522.315 336.216 522.264C293.443 522.214 256.988 491.223 250.053 449.017Z"/>
	<path fill="#FB771A" d="M765.713 451.66C768.057 470.658 769.089 490.225 768.947 509.354C768.87 519.734 768.216 530.102 767.909 540.477C742.546 540.765 717.151 540.48 691.784 540.506L704.648 452.068C718.26 452.253 731.874 452.336 745.488 452.319C749.441 452.35 761.715 453.181 764.804 452.293C765.159 452.191 765.41 451.871 765.713 451.66Z"/>
	<path fill="#FB771A" d="M620.244 452.541C641.695 451.708 663.303 452.003 684.771 452.134C680.678 481.785 675.719 511.336 671.76 540.992C646.75 539.75 621.291 540.39 596.243 540.648C599.66 525.298 602.883 509.847 607.027 494.675C610.9 480.494 615.686 466.512 620.244 452.541Z"/>
	<path fill="#FACB4E" d="M596.243 540.648C621.291 540.39 646.75 539.75 671.76 540.992C668.785 559.647 666.345 578.415 663.724 597.124C662.488 605.948 661.505 614.921 659.826 623.672C649.833 623.181 639.649 623.528 629.635 623.501C615.285 623.463 600.895 623.207 586.553 623.721C587.113 613.318 587.555 602.873 588.61 592.507C590.381 575.103 593.305 557.884 596.243 540.648Z"/>
	<path fill="#FACB4E" d="M691.784 540.506C717.151 540.48 742.546 540.765 767.909 540.477C766.546 561.768 764.103 582.602 760.395 603.603C759.229 610.209 758.306 617.022 756.615 623.512L679.138 623.488C681.717 611.564 683.169 599.362 684.912 587.293L691.784 540.506Z"/>
	<path fill="#FAEDC3" d="M663.108 727.347C664.965 723.467 666.18 710.175 666.916 705.339L675.427 648.964C676.697 640.51 677.383 631.848 679.138 623.488L756.615 623.512C755.238 627.124 754.722 631.251 753.88 635.027C752.257 642.303 750.513 649.89 747.929 656.89C741.752 673.626 735.928 690.907 728.219 706.992C725.549 712.563 716.528 728.181 716.035 733.007C698.281 733.02 680.565 730.293 663.108 727.347Z"/>
	<path fill="#FAEDC3" d="M586.553 623.721C600.895 623.207 615.285 623.463 629.635 623.501C639.649 623.528 649.833 623.181 659.826 623.672C658.078 632.493 657.239 641.399 655.864 650.272C652.114 674.469 648.841 698.784 644.697 722.918C625.316 717.465 607.258 711.725 588.486 704.476C589.465 702.05 586.7 675.194 586.526 670.052C586.005 654.654 586.457 639.131 586.553 623.721Z"/>
	<path fill="#0A8B5B" d="M228.646 642.317L229.267 642.164C236.913 640.222 244.394 637.312 251.928 634.953C261.625 631.959 271.524 629.664 281.549 628.086C360.26 615.658 432.489 639.376 504.319 669.483C512.015 672.709 519.519 676.386 527.202 679.649C547.513 688.274 567.994 696.309 588.486 704.476C607.258 711.725 625.316 717.465 644.697 722.918C650.76 724.756 656.851 726.307 663.108 727.347C680.565 730.293 698.281 733.02 716.035 733.007C721.918 733.176 727.815 733.447 733.701 733.294C727.876 738.693 721.794 743.714 715.687 748.788C712.094 751.775 708.674 755.006 704.789 757.616C679.9 756.014 654.222 751.575 630.224 744.754C573.208 728.55 520.551 701.187 465.601 679.571C391.921 650.587 315.848 636.061 239.239 663.464C236.039 656.316 232.475 649.149 228.646 642.317Z"/>
	<path fill="#F2F2DC" d="M239.239 663.464C315.848 636.061 391.921 650.587 465.601 679.571C520.551 701.187 573.208 728.55 630.224 744.754C654.222 751.575 679.9 756.014 704.789 757.616C700.764 761.037 695.91 766.199 691.164 768.402C684.454 767.706 677.8 767.553 671.085 766.566C639.228 761.883 607.721 752.027 577.612 740.761C521.077 719.609 467.022 690.057 408.711 674.094C398.882 671.403 388.83 669.492 378.827 667.589C358.671 663.755 338.057 661.477 317.513 662.176C292.829 663.015 269.21 668.034 245.398 674.184C243.666 670.511 241.297 666.976 239.239 663.464Z"/>
	<path fill="#0A8B5B" d="M245.398 674.184C269.21 668.034 292.829 663.015 317.513 662.176C338.057 661.477 358.671 663.755 378.827 667.589C388.83 669.492 398.882 671.403 408.711 674.094C467.022 690.057 521.077 719.609 577.612 740.761C607.721 752.027 639.228 761.883 671.085 766.566C677.8 767.553 684.454 767.706 691.164 768.402C673.581 781.769 629.666 805.192 608.45 810.329C589.573 802.76 570.341 796.313 551.758 787.984C478.963 755.355 407.749 716.104 325.681 716.441C310.539 716.504 293.991 717.606 279.33 721.479C267.11 706.513 255.376 690.745 245.398 674.184Z"/>
	<path fill="#F2F2DC" d="M279.33 721.479C293.991 717.606 310.539 716.504 325.681 716.441C407.749 716.104 478.963 755.355 551.758 787.984C570.341 796.313 589.573 802.76 608.45 810.329C602.972 812.473 592.639 816.707 586.99 816.716C566.7 807.709 546.025 799.679 525.808 790.442C452.446 756.924 372.954 717.306 289.802 732.512C286.037 730.859 281.791 724.682 279.33 721.479Z"/>
	<path fill="#0A8B5B" d="M289.802 732.512C372.954 717.306 452.446 756.924 525.808 790.442C546.025 799.679 566.7 807.709 586.99 816.716C583.997 818.027 579.842 818.323 576.599 818.947C563.422 821.483 550.409 823.899 537.02 824.966C463.199 831.009 389.653 810.426 329.694 766.941C320.734 760.392 311.909 753.254 303.738 745.739C299.023 741.403 294.678 736.67 289.802 732.512Z"/>
</svg>
