<?xml version="1.0" standalone="no"?>
<!DOCTYPE svg PUBLIC "-//W3C//DTD SVG 20010904//EN"
 "http://www.w3.org/TR/2001/REC-SVG-20010904/DTD/svg10.dtd">
<svg version="1.0" xmlns="http://www.w3.org/2000/svg"
 width="640.000000pt" height="640.000000pt" viewBox="0 0 640.000000 640.000000"
 preserveAspectRatio="xMidYMid meet">

<g transform="translate(0.000000,640.000000) scale(0.100000,-0.100000)"
fill="#000000" stroke="none">
<path d="M3182 5453 c-37 -129 -49 -228 -58 -481 l-7 -202 -74 0 -73 0 0 43
c0 44 -45 255 -56 266 -18 16 14 -210 41 -296 8 -24 0 -28 -77 -39 l-48 -6
-21 48 c-11 27 -34 87 -51 134 -56 160 -205 470 -225 470 -11 0 8 -176 32
-295 13 -66 44 -183 69 -260 25 -76 44 -140 42 -142 -2 -2 -39 -18 -82 -36
-43 -18 -104 -47 -134 -65 -30 -17 -58 -32 -62 -32 -7 0 -85 95 -167 203 -68
89 -262 288 -274 280 -5 -3 -7 -1 -4 4 4 6 -2 18 -13 28 -11 10 -20 13 -20 7
0 -6 5 -14 10 -17 6 -3 10 -15 10 -26 0 -25 35 -90 44 -82 4 4 4 0 1 -8 -8
-22 95 -221 180 -349 39 -58 74 -111 79 -118 8 -13 -28 -51 -121 -129 l-43
-35 -37 30 c-87 68 -322 216 -330 208 -6 -6 134 -159 263 -287 17 -17 25 -33
21 -43 -4 -9 -2 -16 4 -16 6 0 7 -4 4 -10 -3 -5 -15 -10 -26 -10 -22 0 -150
-59 -189 -87 -16 -12 -21 -13 -15 -4 6 11 4 13 -11 7 -10 -4 -15 -4 -11 0 19
20 -395 154 -475 154 -29 0 -27 -2 34 -47 34 -26 65 -50 68 -53 13 -14 88 -69
115 -84 17 -9 75 -43 130 -75 85 -50 101 -56 108 -42 4 9 5 -9 2 -39 -2 -31
-13 -73 -24 -95 -43 -90 -61 -135 -61 -149 0 -25 -14 -26 -126 -12 -166 22
-269 27 -384 18 l-105 -7 75 -36 c83 -41 287 -112 369 -130 l53 -11 -6 -47
c-19 -151 -19 -160 -2 -167 13 -5 12 -10 -12 -36 -78 -87 -75 -85 -137 -93
-66 -8 -316 -69 -342 -83 -13 -8 -10 -11 18 -20 49 -15 206 -37 262 -36 67 1
46 -14 -50 -37 -47 -11 -115 -19 -170 -19 -72 0 -93 -3 -93 -14 0 -13 66 -94
105 -129 39 -34 162 -115 200 -131 21 -9 35 -19 32 -22 -13 -14 26 -65 90
-119 38 -32 112 -78 168 -105 91 -45 234 -90 283 -90 13 0 45 -32 95 -98 155
-202 378 -388 581 -483 342 -160 734 -185 1080 -68 234 79 395 176 551 333
184 185 262 282 316 391 l49 101 153 39 c289 73 444 138 564 235 140 113 149
216 30 334 -70 70 -216 142 -330 164 l-83 15 -13 84 c-13 90 -10 103 19 103
29 0 245 69 315 101 11 5 47 20 80 33 32 13 61 28 62 33 9 26 -321 22 -520 -6
-31 -4 -59 -6 -61 -4 -2 2 3 29 10 61 9 40 11 68 4 92 -11 39 -57 89 -107 114
-34 17 -56 40 -28 30 9 -4 37 5 63 19 26 14 76 40 110 59 76 41 312 207 312
219 0 5 -10 9 -22 9 -27 0 -283 -65 -313 -79 -29 -14 -247 -102 -266 -108 -12
-3 -28 12 -53 50 -20 30 -47 66 -61 81 -14 15 -25 30 -25 34 0 3 31 38 70 77
137 138 229 240 219 243 -5 2 -37 -13 -71 -34 -71 -43 -188 -119 -203 -131
-70 -58 -91 -73 -97 -73 -4 0 -37 27 -75 60 -37 33 -71 60 -75 60 -4 0 -8 8
-8 19 0 18 10 35 83 139 53 75 186 324 191 358 1 7 7 18 13 25 13 17 34 91 28
97 -6 6 -186 -176 -240 -242 -46 -56 -50 -61 -110 -141 -25 -33 -49 -65 -53
-70 -5 -6 -17 -23 -26 -38 -10 -15 -26 -27 -36 -27 -21 0 -100 49 -100 62 0 5
12 27 27 51 33 52 103 193 103 207 0 6 -4 8 -10 5 -14 -9 -118 -196 -125 -227
-4 -16 -14 -28 -22 -28 -30 0 -151 63 -156 81 -3 11 -2 19 3 19 33 0 150 504
150 646 0 31 -31 -16 -107 -161 -56 -106 -82 -167 -133 -317 -26 -75 -50 -144
-53 -152 -5 -13 -13 -13 -68 0 -35 8 -65 17 -68 19 -2 3 1 15 6 28 27 55 58
314 33 274 -6 -10 -15 -39 -20 -65 -5 -26 -14 -69 -19 -97 -6 -27 -12 -70 -13
-95 l-4 -45 -69 4 c-39 2 -73 5 -77 8 -5 2 -8 75 -8 161 0 87 -5 196 -10 242
-13 106 -49 292 -59 303 -4 4 -13 -9 -19 -30z m273 -878 c173 -37 352 -110
491 -201 32 -21 61 -41 64 -44 3 -3 32 -28 65 -55 75 -62 167 -161 225 -240
24 -33 51 -67 61 -76 17 -16 17 -19 -11 -63 -26 -40 -34 -46 -65 -46 -19 0
-35 -4 -35 -9 0 -4 11 -6 25 -3 29 5 31 -5 14 -74 -14 -53 -45 -62 -55 -16
-17 75 -25 102 -33 102 -4 0 -28 16 -52 35 -85 66 -185 83 -261 44 -39 -20
-47 -20 -165 -10 -220 20 -794 7 -1293 -29 -74 -5 -141 -10 -147 -10 -9 0 -13
22 -13 78 0 87 -21 146 -64 179 l-26 21 93 81 c117 104 101 92 204 154 182
109 319 160 513 192 110 19 356 13 465 -10z m-1317 -484 c29 -15 28 -32 -8
-280 -40 -276 -60 -557 -60 -856 l0 -250 -122 -22 c-83 -15 -126 -19 -133 -12
-15 15 -13 924 3 1149 15 199 23 244 50 255 76 33 223 41 270 16z m2489 -243
c52 -21 58 -26 61 -54 2 -18 -4 -49 -13 -70 -30 -70 -146 -386 -206 -559 -113
-327 -179 -461 -275 -559 -99 -101 -210 -141 -266 -96 -16 12 -28 27 -28 33 1
7 23 41 51 77 63 83 131 220 164 334 14 48 25 94 25 100 0 7 -22 27 -49 45
-118 76 -188 240 -212 496 -19 214 5 284 97 271 60 -8 123 -42 134 -72 6 -14
10 -78 10 -142 0 -161 35 -306 86 -356 36 -37 57 8 125 269 63 241 77 287 98
303 23 19 125 9 198 -20z m-892 -7 l70 -6 3 -104 c3 -119 10 -104 -122 -271
-65 -83 -273 -367 -289 -395 -3 -7 55 -9 174 -6 l179 3 -1 -28 c0 -16 -6 -69
-12 -119 l-12 -90 -225 -6 c-124 -4 -279 -14 -345 -23 -66 -9 -125 -16 -131
-16 -18 0 -24 39 -11 69 43 100 313 529 423 672 24 32 44 61 44 65 0 4 -90 4
-200 1 -121 -4 -200 -3 -200 3 0 18 31 235 35 248 3 9 67 12 277 11 150 -1
305 -4 343 -8z m-695 -50 c0 -25 -7 -76 -15 -113 -14 -70 -7 -59 -215 -328
-74 -96 -230 -316 -230 -325 0 -3 81 -3 180 1 l180 7 0 -31 c0 -27 -13 -127
-26 -198 -3 -20 -11 -21 -186 -27 -101 -3 -262 -15 -358 -27 -96 -11 -178 -20
-182 -20 -31 0 28 140 122 290 73 118 285 435 327 490 l35 45 -29 4 c-15 1
-106 -2 -201 -9 -96 -6 -176 -10 -178 -8 -4 5 32 257 37 263 4 3 282 23 409
29 36 1 125 3 198 3 l132 1 0 -47z m-1915 -141 c3 -6 -1 -7 -9 -4 -18 7 -21
14 -7 14 6 0 13 -4 16 -10z m595 -400 c0 -44 -3 -50 -20 -50 -36 0 -103 -41
-167 -101 -72 -69 -95 -76 -83 -25 17 74 107 164 210 209 56 24 60 22 60 -33z
m3265 -15 c145 -38 271 -129 296 -213 18 -61 0 -77 -85 -76 -55 0 -78 8 -182
57 -65 30 -143 63 -173 71 -60 18 -194 21 -256 6 -22 -5 -41 -7 -43 -6 -2 2
11 40 28 84 l31 81 47 6 c26 3 54 8 62 10 33 9 219 -5 275 -20z m-3476 -218
c-27 -60 -178 -117 -304 -116 l-60 1 91 18 c84 17 166 51 239 99 40 26 47 26
34 -2z m2531 -19 c-1 -49 -20 -104 -44 -124 -19 -17 -22 -24 -13 -34 10 -10 7
-10 -10 -1 -16 8 -24 8 -29 -1 -4 -6 -3 -8 3 -5 6 4 15 1 21 -6 7 -8 2 -28
-19 -67 -16 -30 -29 -48 -29 -40 0 8 -8 -1 -17 -20 -23 -47 -64 -89 -70 -72
-3 6 -9 12 -14 12 -6 0 -7 -4 -4 -10 3 -5 -3 -10 -14 -10 -10 0 -21 -5 -23
-11 -6 -17 -48 7 -48 27 0 8 -5 12 -10 9 -6 -4 -18 -1 -27 7 -12 9 -15 9 -9 1
4 -7 3 -13 -2 -13 -6 0 -10 16 -9 35 1 31 2 33 17 20 17 -15 40 -20 40 -9 0 4
-8 13 -17 20 -16 12 -14 14 22 15 22 1 45 1 52 0 6 -1 24 10 39 24 15 14 33
25 40 25 8 0 14 5 14 10 0 12 -27 0 -74 -33 l-29 -21 7 30 c24 96 49 133 136
198 91 70 120 80 120 44z m800 -113 c97 -22 305 -22 374 -1 l49 15 -34 -35
c-18 -18 -37 -34 -42 -34 -4 0 -23 -11 -40 -24 -18 -13 -72 -39 -122 -57 l-90
-34 -262 0 c-145 0 -263 1 -263 3 0 2 13 34 29 70 15 37 31 75 34 84 3 9 21
22 39 27 46 14 237 6 328 -14z m-1189 -179 c-9 -11 -9 -15 1 -20 7 -3 3 -3 -8
-1 -12 3 -57 -10 -105 -30 -46 -19 -89 -35 -97 -35 -7 0 -10 -4 -7 -10 3 -5 0
-7 -8 -4 -8 3 -54 -7 -103 -21 -154 -48 -261 -65 -429 -72 l-159 -6 64 -19
c290 -82 421 -108 550 -108 129 0 188 12 285 59 71 35 145 91 145 111 0 3 6 7
14 7 9 0 16 -17 20 -47 10 -72 84 -130 166 -130 37 0 39 -1 28 -19 -7 -11 -22
-24 -35 -30 -13 -6 -23 -16 -24 -23 0 -16 -146 -88 -247 -123 -92 -32 -209
-49 -292 -41 -75 6 -286 64 -480 131 -147 51 -281 95 -375 125 -95 30 -294 76
-410 95 -38 6 -233 23 -345 31 -157 10 -346 56 -398 97 -22 17 -6 18 34 3 90
-36 249 -66 344 -66 85 0 477 33 540 45 97 19 251 24 438 13 235 -14 274 -9
457 51 158 52 140 49 304 50 122 1 142 -1 132 -13z m-1 -50 c0 -3 -4 -8 -10
-11 -5 -3 -10 -1 -10 4 0 6 5 11 10 11 6 0 10 -2 10 -4z m170 -66 c0 -5 -5
-10 -11 -10 -5 0 -7 5 -4 10 3 6 8 10 11 10 2 0 4 -4 4 -10z m-1580 -306 c201
-34 312 -58 480 -104 243 -67 501 -131 585 -146 124 -22 325 -28 440 -13 55 7
114 12 132 12 18 1 30 4 27 9 -3 4 4 8 14 8 19 0 159 39 196 55 13 6 17 5 13
-2 -4 -6 -40 -23 -80 -38 -39 -15 -81 -31 -92 -35 -156 -60 -379 -65 -645 -14
-103 20 -308 29 -342 15 -63 -24 -15 -92 105 -151 86 -42 187 -69 272 -71 l50
-2 -65 -9 c-196 -27 -549 59 -890 219 -41 19 -115 53 -164 75 -50 23 -119 61
-155 85 -62 42 -140 117 -141 136 0 10 72 2 260 -29z"/>
<path d="M4040 3186 c0 -2 8 -10 18 -17 15 -13 16 -12 3 4 -13 16 -21 21 -21
13z"/>
<path d="M3950 2809 c0 -5 5 -7 10 -4 6 3 10 8 10 11 0 2 -4 4 -10 4 -5 0 -10
-5 -10 -11z"/>
<path d="M3852 2678 c-7 -7 -12 -21 -11 -32 0 -15 2 -17 6 -6 3 8 12 19 19 23
15 9 19 27 6 27 -4 0 -13 -5 -20 -12z"/>
<path d="M2370 4877 c0 -30 116 -237 133 -237 18 0 -20 84 -83 182 -48 74 -50
76 -50 55z"/>
<path d="M1893 2086 c-55 -25 -65 -66 -36 -155 12 -38 13 -55 5 -63 -14 -14
-72 42 -72 71 0 26 -13 33 -45 25 -32 -8 -33 -35 -2 -94 51 -102 161 -120 202
-33 14 30 15 42 5 77 -25 88 -25 98 1 94 17 -2 27 -13 35 -38 9 -26 18 -36 37
-38 59 -7 53 72 -10 130 -36 34 -78 42 -120 24z"/>
<path d="M4347 2082 c-10 -10 -17 -23 -17 -29 0 -14 239 -215 250 -211 4 2 33
37 65 78 l56 75 -26 23 -26 22 -42 -46 -42 -46 -92 76 c-50 42 -95 76 -100 76
-6 0 -17 -8 -26 -18z"/>
<path d="M4210 1951 c-42 -22 -80 -83 -80 -129 0 -70 73 -164 143 -183 71 -19
165 36 183 107 24 96 -77 223 -176 224 -19 0 -51 -8 -70 -19z m118 -86 c58
-49 66 -119 17 -145 -70 -38 -175 98 -119 154 23 23 68 19 102 -9z"/>
<path d="M2084 1887 c-84 -87 -114 -136 -114 -187 0 -108 129 -172 206 -102
33 30 144 174 144 187 0 12 -33 34 -50 35 -8 0 -46 -38 -83 -85 -69 -86 -96
-102 -125 -73 -22 22 -13 58 26 101 21 23 53 62 72 86 l33 43 -24 19 c-33 26
-39 24 -85 -24z"/>
<path d="M3934 1751 c-99 -60 -101 -185 -4 -276 28 -27 38 -30 95 -30 54 0 67
4 90 25 60 56 71 129 31 208 -42 82 -141 116 -212 73z m121 -93 c46 -54 46
-115 -1 -136 -38 -18 -74 3 -101 58 -26 53 -22 85 15 104 33 17 57 10 87 -26z"/>
<path d="M2346 1716 c-13 -23 -47 -86 -76 -140 l-53 -99 22 -19 c34 -27 46
-23 72 26 18 34 26 42 36 34 7 -6 13 -25 13 -43 0 -69 11 -95 44 -104 17 -4
33 -6 36 -4 2 2 3 31 2 63 -3 60 -2 60 26 60 44 0 85 49 86 104 1 57 -25 87
-116 131 l-68 32 -24 -41z m98 -72 c22 -8 37 -39 30 -58 -11 -28 -94 -18 -94
11 0 41 28 61 64 47z"/>
<path d="M3733 1648 c-27 -13 -28 -22 -8 -78 8 -24 14 -45 12 -46 -2 -2 -21
-10 -43 -17 l-39 -14 -21 51 c-19 46 -24 51 -49 49 -16 -1 -32 -6 -37 -11 -5
-5 10 -63 36 -135 59 -167 61 -170 94 -162 37 9 37 9 23 57 -7 24 -14 51 -17
60 -4 13 5 22 32 33 21 9 43 14 49 11 7 -2 18 -25 25 -51 15 -53 30 -63 67
-46 21 10 24 16 19 39 -15 62 -100 272 -110 271 -6 0 -21 -5 -33 -11z"/>
<path d="M2630 1617 c0 -1 -22 -67 -50 -147 -27 -80 -50 -146 -50 -147 0 -7
62 -33 69 -29 5 3 14 20 21 38 30 82 23 77 80 65 54 -10 63 -7 74 29 6 19 0
23 -41 34 -60 16 -64 20 -56 48 4 19 10 22 27 17 104 -32 125 -28 126 21 0 18
-14 25 -88 47 -81 25 -112 31 -112 24z"/>
<path d="M3380 1553 c-31 -11 -71 -59 -81 -97 -21 -79 20 -191 80 -215 45 -19
120 -16 150 7 31 22 39 63 16 82 -13 11 -19 10 -38 -9 -59 -54 -127 -5 -127
92 0 59 24 82 79 73 33 -5 42 -3 51 13 13 25 13 27 -6 45 -15 16 -91 21 -124
9z"/>
<path d="M3056 1499 c-34 -40 -35 -97 -3 -127 12 -11 43 -30 70 -41 33 -14 47
-26 47 -40 0 -30 -34 -35 -85 -12 l-46 20 -10 -27 c-9 -23 -7 -29 11 -44 30
-24 91 -39 129 -32 34 7 77 51 87 89 10 41 -17 78 -80 110 -33 17 -61 36 -64
42 -6 20 26 27 66 15 40 -13 52 -5 52 35 0 30 -28 43 -93 43 -49 0 -58 -3 -81
-31z"/>
</g>
</svg>
