<?xml version="1.0" encoding="utf-8" ?>
<svg xmlns="http://www.w3.org/2000/svg" xmlns:xlink="http://www.w3.org/1999/xlink" width="1068" height="1068">
	<path transform="scale(1.0427 1.0427)" d="M510.912 125.883C512.426 126.329 513.826 127.077 515.188 127.865C525.59 133.881 534.013 144.393 540.873 154.037C573.317 199.656 586.033 254.035 600.589 307.084C604.694 299.174 607.877 290.514 611.457 282.336L629.581 241.356C631.955 235.842 642.396 208.869 645.274 206.139C646.682 204.803 648.069 204.598 649.933 204.582C650.585 204.977 651.105 205.098 651.413 205.838C652.385 208.179 651.383 211.446 650.622 213.723C647.982 221.616 643.886 229.389 640.625 237.077C628.628 265.364 614.719 293.153 604.184 322.003C605.029 327.426 606.266 332.834 607.616 338.15C612.758 339.736 617.718 341.649 622.717 343.627C628.267 333.937 636.422 322.968 642.609 313.23L688.541 239.888L726.814 178.163C732.295 169.331 738.716 157.189 745.158 149.282C746.858 147.196 749.031 144.817 751.862 144.575C752.935 145.172 753.364 145.38 753.699 146.681C754.248 148.815 753.254 151.149 752.306 153.01C747.209 163.015 740.318 172.826 734.196 182.263C727.453 192.657 720.998 203.382 714.514 213.949L663.958 295.321C653.08 312.633 642.373 330.132 630.814 347C639.412 351.488 647.593 356.755 655.616 362.19C659.643 356.797 664.532 351.982 669.044 346.99L694.773 318.315C703.882 307.985 712.635 297.348 721.763 287.032C725.865 282.398 730.141 277.033 734.917 273.099C736.695 271.635 738.378 270.448 740.767 270.666C741.952 271.519 742.731 272.328 742.788 273.931C742.98 279.322 672.171 355.512 662.228 367.214C668.901 371.715 674.787 377.906 680.666 383.405L804.283 277.728C814.024 269.474 849.069 236.274 858.189 233.052C859.382 232.631 860.864 232.661 861.919 233.451C862.873 234.165 863.406 235.013 863.432 236.22C863.451 237.123 863.03 238.022 862.583 238.778C860.352 242.556 837.178 260.621 831.765 265.265C803.368 289.942 774.801 314.42 746.063 338.699C726.164 355.538 705.636 371.808 686.622 389.653C692.59 398.415 699.865 406.747 706.205 415.316C716.84 408.53 727.077 401.09 737.572 394.086C751.64 384.698 765.957 375.679 780.091 366.391C787.718 361.378 795.008 355.539 802.887 350.97C804.985 349.753 807.359 348.541 809.817 348.35C811.338 348.232 812.145 348.607 813.298 349.547C813.635 350.498 813.748 350.985 813.548 352.007C813.127 354.149 811.122 356.03 809.491 357.308C801.878 363.271 791.404 368.842 783.106 374.284C758.865 390.179 734.382 405.584 710.934 422.657C714.001 429.461 717.615 436.039 721.082 442.649C737.407 434.248 754.5 426.977 771.247 419.457L840.219 388.152C856.606 380.668 873.063 373.197 889.277 365.348C902.342 359.024 915.375 352.112 928.762 346.533C931.298 345.476 935.219 343.872 937.988 344.54C939.372 344.875 939.596 345.201 940.404 346.27C940.532 347.222 940.649 347.988 940.265 348.913C939.561 350.605 937.792 351.906 936.235 352.758C929.296 356.556 921.576 359.738 914.352 363.042L876.864 380.246C846.373 394.303 816.193 409.082 785.588 422.894L747.304 439.941C740.049 443.168 732.455 446.181 725.517 450.028L724.938 450.355C727.712 459.936 731.256 469.27 733.939 478.905C742.236 475.404 752.091 474.152 760.811 471.742C785.359 464.958 809.755 457.756 834.411 451.366C840.844 449.698 848.097 446.789 854.778 446.755C856.049 446.748 857.371 447.15 858.191 448.191C859.023 449.248 858.959 449.883 858.868 451.116C857.553 453.363 855.523 454.316 853.159 455.249C842.095 459.616 828.281 462.123 816.603 465.319C789.565 472.622 762.568 480.073 735.612 487.674L738.709 508.223C757.062 504.044 776.242 501.591 794.851 498.684C824.335 493.935 853.866 489.489 883.441 485.347L951.087 475.627C957.589 474.733 964.157 473.139 970.664 472.523C973.223 472.281 976.36 472.133 978.746 473.276C980.068 473.908 980.477 474.402 981.011 475.731C980.812 476.611 980.286 477.392 979.669 478.05C977.742 480.109 974.546 481.062 971.879 481.641C961.605 483.871 950.468 484.613 940.005 486.088L883.525 494.547L817.226 504.508C803.455 506.601 789.561 509.242 775.658 510.28C784.19 512.346 792.792 514.147 801.001 517.333C819.23 524.407 831.598 535.978 839.537 553.782C857.385 547.957 881.137 546.713 899.674 549.048C923.479 552.048 948.147 562.578 963.102 582.033C970.775 592.015 976.247 607.222 974.637 619.913C979.888 619.678 994.94 618.526 999.025 621.807L998.9 622.612C993.398 626.607 980.798 625.347 974.383 624.999C972.015 631.965 969.292 638.431 963.795 643.54C958.607 648.362 952.056 651.134 944.904 650.701C931.64 649.898 924.667 639.391 916.67 630.353C916.639 630.653 916.612 630.954 916.578 631.254C914.796 646.706 904.566 658.636 888.91 661.015C882.705 661.958 876.381 661.248 870.276 663.002C865.1 664.49 860.809 667.324 856.671 670.695C836.068 687.476 817.321 719.339 814.883 745.605C814.459 750.173 813.852 763.293 817.072 766.832C820.963 771.109 848.63 785.317 855.876 789.75C870.88 798.931 885.781 808.147 900.087 818.408C917.794 831.109 934.933 845.586 950.985 860.31C958.465 867.172 966.788 874.421 973.194 882.315C975.272 884.875 977.475 888.418 976.973 891.878C976.776 893.237 976.079 894.402 974.908 895.153C969.383 898.691 954.246 887.75 949.416 884.768C935.603 876.238 920.983 868.725 906.485 861.419C841.588 829.109 772.792 805.31 701.803 790.611C700.335 792.626 698.705 794.518 696.929 796.268C672.887 819.833 629.622 825.652 597.936 818.544C587.315 816.161 577.241 811.843 567.01 808.219C546.839 801.074 526.883 797.602 505.481 797.507C495.375 798.462 485.581 800.135 475.972 803.489C467.072 806.595 458.526 810.634 449.564 813.594C436.595 817.912 423.083 820.379 409.425 820.921C375.226 822.568 347.967 814.238 322.46 791.143C264.026 801.927 207.123 819.789 153.009 844.336C132.819 853.279 112.737 863.43 93.4997 874.257C82.9647 880.186 72.7227 887.362 61.8545 892.591C58.8162 894.053 55.1976 895.444 51.7828 895.164C50.3842 895.049 48.786 894.506 47.9518 893.313C46.9481 891.877 47.1742 889.853 47.6737 888.281C49.9677 881.062 60.8723 872.382 66.4616 866.999C107.509 826.82 154.521 793.227 205.832 767.411C206.173 757.339 206.067 747.615 204.385 737.632C199.176 706.706 182.045 674.521 150.144 664.885C139.973 661.812 128.21 661.166 119.413 654.657C111.327 648.674 109.768 640.146 108.316 630.896C101.469 638.275 94.6235 646.549 84.5595 649.407C77.8495 651.241 70.6865 650.351 64.6302 646.928C56.241 642.22 51.9776 634.022 49.4705 625.099C42.436 624.96 28.8368 626.228 23.2426 621.873L23.1989 621.147C30.6612 618.178 41.0774 619.897 48.9584 620.08C48.4298 615.117 48.6927 610.101 49.7373 605.22C53.461 587.357 66.8702 573.202 81.7924 563.59C113.292 543.301 151.405 546.036 186.359 553.54C187.837 548.581 190.328 543.862 193.387 539.7C206.193 522.277 230.106 514.513 250.669 511.38C218.267 505.989 185.815 500.902 153.318 496.12C120.095 491.37 86.6075 487.345 53.4892 481.963C51.4353 481.629 49.0919 481.156 47.336 479.979C46.7836 479.609 46.2671 479.156 45.9088 478.587C45.2179 477.491 45.3612 476.496 45.5982 475.301C46.1385 474.421 46.4886 473.968 47.4076 473.435C49.7329 472.085 53.3503 472.465 55.9092 472.726C71.7531 474.339 87.6162 477.395 103.333 479.947L165.87 489.509L236.962 500.154C252.833 502.503 269.097 504.366 284.75 507.881C285.759 501.372 286.814 494.869 287.917 488.375C275.456 483.012 261.439 480.108 248.371 476.56C228.748 471.229 209.18 465.697 189.67 459.966C182.672 457.892 174.393 456.986 167.899 453.706C166.182 452.838 164.975 451.91 164.353 450.017C164.564 448.78 164.58 448.119 165.734 447.355C167.489 446.194 170.452 446.407 172.417 446.714C182.499 448.29 194.246 452.527 204.241 455.189C232.788 462.893 261.224 471.002 289.541 479.515C292.399 469.799 295.552 460.172 298.996 450.647L138.114 376.436L104.452 360.92C98.4746 358.155 91.3801 355.721 86.1099 351.739C84.5778 350.582 83.6137 349.54 83.3786 347.558C83.9026 346.108 84.3734 345.137 85.8728 344.509C87.7233 343.734 89.6661 343.988 91.48 344.721C98.7361 347.652 105.846 351.488 112.964 354.797L167.787 380.592L302.414 443.122C306.087 436.2 309.996 429.455 313.494 422.432C291.029 406.81 267.849 392.107 244.765 377.42C239.418 374.018 234.181 370.248 228.777 366.983C223.427 363.749 217.526 360.683 212.597 356.846C210.973 355.582 208.872 353.134 208.397 351.081C208.077 349.7 208.197 349.398 208.814 348.223C209.405 347.858 209.917 347.608 210.618 347.524C213.065 347.23 215.326 348.088 217.463 349.199C228.802 355.096 239.343 363.541 250.083 370.514C272.752 385.23 296.401 399.327 317.745 415.904C324.405 406.69 331.478 397.781 338.942 389.205C327.237 380.544 316.341 370.876 305.28 361.423C291.082 349.243 276.816 337.143 262.481 325.124C239.9 306.228 217.436 287.194 195.089 268.022C185.47 259.804 175.271 251.914 166.026 243.311C164.132 241.549 161.084 238.645 160.67 235.997C160.437 234.503 160.648 234.238 161.421 233.039C162.34 232.55 162.926 232.31 163.991 232.256C165.725 232.167 168.008 233.097 169.395 234.1C173.799 237.288 179.875 243.8 184.362 247.638L226.454 283.343L344.744 383.325C349.921 378.611 355.156 373.963 360.449 369.382C353.889 359.616 345.772 350.627 338.059 341.759C323.955 325.833 310.026 309.753 296.274 293.521C291.906 288.334 287.022 283.299 282.978 277.871C282.276 276.928 281.788 275.878 281.549 274.724C281.211 273.095 281.642 272.202 282.547 270.884C283.727 270.26 284.07 270.018 285.452 270.282C287.306 270.636 289.272 272.423 290.561 273.689C299.486 282.451 307.271 293.199 315.516 302.653C333.022 322.726 351.072 342.502 367.113 363.783C375.326 358.218 383.413 352.757 392.054 347.857C380.045 330.275 369.146 311.729 358.008 293.569L303.098 203.748C294.822 190.237 286.813 176.51 278.446 163.068C275.394 158.165 270.83 153.304 269.276 147.642C268.857 146.115 268.884 145.033 269.657 143.608C270.7 142.776 271.176 142.53 272.512 142.431C275.563 143.305 277.691 146.415 279.448 148.923C285.833 158.039 291.273 167.906 296.93 177.486C304.104 189.615 311.395 201.673 318.803 213.659L399.268 343.649C405.353 341.252 411.303 338.201 417.284 335.525C417.916 331.86 418.879 328.208 419.699 324.578C410.083 302.882 401.401 280.754 391.935 258.985C386.833 247.465 381.822 235.906 376.902 224.307C375.459 220.934 372.871 216.787 372.293 213.229C371.886 210.728 372.146 208.597 373.691 206.568C374.816 206.072 375.259 205.735 376.476 206.336C378.598 207.384 380.282 210.384 381.298 212.405C385.81 221.38 388.982 231.362 392.974 240.624C403.24 264.438 413.588 288.091 422.899 312.307C425.868 297.6 430.003 283.173 434.181 268.773C445.974 228.124 461.938 180.551 488.684 147.158C495.288 138.914 502.623 132.338 510.912 125.883ZM216.206 762.022C219.123 760.738 222.05 759.477 224.988 758.24C224.179 748.811 223.243 739.31 220.62 730.183C219.193 725.215 216.621 720.399 215.633 715.357C215.355 713.939 215.2 712.813 216.122 711.643C217.492 711.598 218.469 712.213 219.468 713.1C225.833 718.75 229.172 746.549 229.87 755.49C234.441 753.588 239.157 751.829 243.594 749.636C243.203 739.129 241.549 725.687 237.112 716.024C235.794 713.152 232.914 707.998 234.33 704.842C234.601 704.238 235.015 704.288 235.591 704.095C237.508 704.735 239.289 706.17 240.179 708.031C241.237 710.244 241.7 712.91 242.435 715.253C245.738 725.791 247.869 736.127 248.693 747.168C253.828 745.182 258.941 743.143 264.033 741.05C258.944 706.173 248.148 671.751 223.086 645.746C220.118 642.924 212.098 637.525 211.07 633.965C211.346 632.572 211.458 632.468 212.467 631.454C214.124 631.039 215.216 631.401 216.646 632.226C221.021 634.75 225.079 639.26 228.466 642.961C246.864 663.061 258.733 688.799 265.044 715.169C266.962 723.18 268.131 731.039 268.781 739.255L283.298 733.809C277.419 694.993 257.706 653.001 225.54 629.389C223.747 628.072 219.619 625.729 219.567 623.288C219.541 622.073 219.72 621.64 220.54 620.805C222.241 620.282 224.151 621.259 225.629 622.048C232.289 625.605 238.029 631.33 243.135 636.814C262.662 657.786 276.023 683.647 283.814 711.114C285.786 718.068 287.52 725.229 288.714 732.358C297.067 729.676 305.404 726.868 313.872 724.568C305.652 676.725 295.78 649.308 255.005 618.749C242.918 609.689 232.1 601.446 224.834 587.782C216.931 590.363 209.315 591.329 201.588 587.252C192.816 582.625 188.787 574.972 186.126 565.814L185.767 564.566C170.765 560.866 155.285 557.981 139.752 558.712C113.464 560.938 88.9217 567.005 71.2856 588.119C64.1969 596.605 58.6853 607.389 59.8669 618.748C60.5226 625.052 63.0146 631.448 68.005 635.557C71.1663 638.159 74.7839 639.854 78.9497 639.236C92.9062 637.165 102.44 612.311 122.755 608.75C125.916 608.195 129.266 608.115 132.031 610.016C133.075 610.734 133.21 611.16 133.674 612.289C133.258 615.33 131.152 616.999 128.813 618.763C124.021 622.376 119.936 625.385 119.079 631.802C118.556 635.719 119.877 639.206 122.352 642.223C131.363 653.206 148.396 651.62 160.655 656.961C199.306 673.798 219.015 721.706 216.206 762.022ZM335.872 729.625C320.952 733.549 306.067 739.014 291.518 744.148C230.152 765.803 180.901 790.362 128.734 829.699C116.561 838.878 104.652 848.13 93.34 858.366L88.2432 863.378L94.6519 860.001C166.195 819.619 245.653 793.528 326.318 779.083C329.67 781.858 332.709 785 336.027 787.815C343.525 794.176 352.455 799.171 361.659 802.585C362.705 802.972 363.758 803.342 364.816 803.693C392.669 812.938 423.042 809.956 450.473 800.633C458.278 797.98 465.827 794.596 473.616 791.883C487.179 787.16 501.563 785.695 515.861 786.076C531.368 786.483 546.752 788.937 561.616 793.373C588.824 801.498 604.179 811.469 634.612 808.541C651.813 806.887 671.675 801.616 685.641 791.039C689.73 787.943 693.116 782.45 697.886 780.485C704.541 777.744 724.843 784.006 732.381 785.841C784.978 798.249 836.233 815.779 885.412 838.181C894.009 841.961 902.485 846.013 910.825 850.33C918.713 854.458 926.411 859.04 934.575 862.605C923.792 851.837 911.544 842.477 899.413 833.298C835.925 785.258 761.564 750.991 685.747 727.423C683.801 729.885 681.629 732.207 679.452 734.466C651.136 763.826 606.079 773.237 566.913 765.96C547.953 762.437 529.57 755.861 510.041 756.057C482.479 756.334 459.078 766.94 432.249 767.356C395.076 767.933 362.563 755.429 335.872 729.625ZM358.592 733.034C361.363 735.169 364.123 737.292 367.016 739.26C370.919 737.188 374.74 735.331 378.84 733.693C375.126 687.487 364.656 630.13 327.364 598.427C324.399 595.907 315.012 589.911 314.81 585.819C314.767 584.949 315.095 584.702 315.53 584.001C316.709 583.613 317.314 583.544 318.479 584.09C321.461 585.489 324.055 587.724 326.539 589.844C367.006 624.86 380.226 678.319 384.18 729.622C384.194 729.799 384.204 729.976 384.216 730.154C389.953 727.13 395.548 724.16 401.698 722.042C395.476 683.458 389.358 655.491 368.165 621.998C361.907 612.11 354.808 602.251 346.496 593.987C342.265 589.781 337.16 586.463 332.586 582.645C331.003 581.324 329.033 579.607 328.974 577.431C330.028 576.647 330.807 576.618 332.115 576.752C341.104 577.671 360.855 601.866 366.143 609.184C385.556 636.046 397.207 665.744 403.244 698.206C404.72 706.144 406.216 714.412 406.732 722.476C410.937 723.178 414.747 724.304 418.743 725.773C414.425 700.491 410.343 675.169 406.497 649.811C404.652 637.369 403.886 624.398 401.386 612.122C391.873 603.19 384.522 592.136 375.793 582.46C345.615 549.007 307.473 520.699 260.249 522.027C259.371 522.051 258.515 522.116 257.64 522.193C238.618 524.169 216.288 529.309 203.54 544.792C199.399 549.821 196.616 556.162 197.209 562.784C197.631 567.499 199.491 572.085 203.29 575.064C206.951 577.935 211.776 578.749 216.29 577.977C223.187 576.798 228.087 569.882 233.731 566.232C239.381 562.577 251.572 559.442 257.528 563.31C258.97 564.246 260.61 565.753 260.887 567.518C261.02 568.363 260.693 568.864 260.179 569.533C255.971 574.999 235.955 573.385 235.564 582.956C235.37 587.713 240.907 592.814 244.175 595.776C252.654 603.465 262.801 609.153 271.496 616.609C304.507 644.915 318.67 678.34 324.635 720.461L330.773 718.31C329.079 705.87 326.497 693.786 322.42 681.893C320.7 676.878 313.859 667.254 315.915 662.193L316.912 661.361C318.486 661.603 319.199 662.299 320.142 663.573C326.678 672.406 331.046 688.493 333.185 699.236C334.243 704.553 334.709 710.107 336.181 715.319C344.128 717.365 347.316 723.948 352.946 729.212C352.279 720.59 351.666 711.952 350.327 703.403C349.293 696.797 347.465 690.1 346.966 683.45C346.844 681.821 346.638 679.542 347.673 678.167C349.037 678.472 349.528 679.108 350.336 680.274C356.369 688.979 358.016 721.63 358.592 733.034ZM839.861 563.786C838.919 571.826 836.498 578.241 829.968 583.481C823.821 588.413 816.42 590.766 808.535 589.86C804.613 589.409 801.054 588.124 797.428 586.604C791.008 614.612 764.9 620.707 746.598 638.782C723.338 661.752 714.336 691.634 709.931 723.037C717.891 725.98 725.941 728.786 733.797 731.991C742.524 695.471 753.285 664.93 778.8 636.441C783.415 631.287 788.626 625.156 794.593 621.545C796.03 620.676 798.416 620.096 800.078 620.522C800.509 620.633 800.68 620.803 801.002 621.049C801.232 622.318 800.903 622.773 800.215 623.805C796.712 629.064 790.608 633.356 786.035 637.777C782.617 641.082 779.501 644.807 776.427 648.433C756.32 672.152 746.222 704.098 738.753 733.706C743.006 735.468 747.318 737.147 751.517 739.032C756.979 704.208 770.364 668.636 794.301 642.229C798.055 638.087 802.376 633.146 806.951 629.925C808.503 628.833 809.787 628.277 811.644 627.929L812.862 628.35C813.279 629.873 813.115 630.891 812.373 632.304C809.635 637.509 802.966 642.043 798.713 646.16C776.39 669.624 762.579 709.688 756.6 740.986C762.811 743.431 769.324 745.586 775.381 748.358C775.634 740.379 778.101 716.246 783.531 711.204C784.169 710.612 784.611 710.335 785.424 710.094C786.401 710.624 786.264 710.292 786.52 711.209C787.335 714.126 784.756 721.028 784.009 724.1C781.931 732.646 780.707 741.684 781.038 750.49C784.843 752.179 788.674 753.824 792.45 755.573C792.463 743.629 795.218 719.384 804.294 710.8C804.711 710.407 804.868 710.353 805.315 710.116L805.992 710.448C806.753 714.928 803.394 720.822 802.189 725.151C801.114 729.007 800.229 732.913 799.536 736.855C798.265 744.228 798.295 751.482 799.077 758.909L805.017 761.402C801.064 731.229 812.743 704.864 830.905 681.383C840.262 669.285 855.415 653.113 871.468 651.026C883.054 649.519 893.668 652.176 901.84 641.525C904.488 638.074 906.541 633.717 905.937 629.265C905.432 625.536 903.238 622.593 900.209 620.47C896.974 618.203 888.95 615.65 887.933 611.643C887.747 610.912 888.178 610.607 888.546 610.011C892.989 607.303 898.137 607.42 903.057 608.655C910.756 610.588 918.03 615.436 923.654 620.932C931.09 628.197 939.682 645.042 952.431 637.763C957.588 634.818 961.376 629.165 962.88 623.504C965.451 613.824 962.598 601.474 957.4 593.042C946.824 575.886 925.655 565.46 906.63 561.046C897.172 558.878 887.477 557.924 877.778 558.207C864.937 558.995 852.455 561.256 839.861 563.786ZM619.323 728.921C626.929 732.244 634.04 736.414 640.001 742.269C639.808 695.773 643.781 662.14 669.432 622.016C672.927 616.548 676.944 611.203 681.08 606.205C683.246 603.588 689.24 597.948 690.37 595.557C693.949 591.92 700.824 583.628 705.932 582.881C707.241 582.69 707.524 583.111 708.394 583.926C708.744 585.345 709.025 585.842 708.28 587.201C706.939 589.644 701.787 592.772 699.493 594.85C693.957 599.862 689.029 605.606 684.457 611.503C666.4 634.791 652.912 663.213 648.515 692.484C646.032 709.015 645.94 725.537 646.001 742.204C653.591 738.097 660.894 733.887 667.998 728.961C668.057 717.993 669.119 684.636 676.31 677.612C676.738 677.193 676.765 677.209 677.212 676.962C678.077 677.895 677.924 679.081 677.897 680.33C677.758 686.783 675.866 693.362 675.071 699.779C674.08 707.776 674.084 715.716 673.604 723.732C676.117 720.232 678.594 715.999 683.273 715.385C685.82 715.05 688.322 715.848 690.752 716.512C691.383 706.144 694.771 672.346 701.297 665.722C702.261 664.744 702.556 664.743 703.805 664.808C704.697 666.152 704.616 667.393 704.299 668.96C703.709 671.883 702.462 674.609 701.734 677.493C699.878 684.836 694.243 713.204 696.941 718.786L696.518 718.097L697.516 718.328C700.843 711.528 701.095 702.242 702.868 694.783C708.491 671.14 721.45 647.66 738.678 630.437C742.352 626.763 746.265 623.186 750.451 620.1C759.125 613.705 790.751 595.663 786.045 583.168C784.716 579.638 780.968 577.285 777.635 575.923C773.618 574.283 762.471 572.883 760.452 569.132C760.137 568.546 760.167 567.93 760.458 567.322C761.402 565.353 763.746 564.313 765.753 563.896C772.987 562.392 781.233 564.224 787.892 567.116C798.86 571.879 815.063 585.996 825.034 571.352C827.856 567.207 828.579 562.519 827.55 557.653C825.411 547.542 816.349 539.484 807.964 534.233C792.665 524.652 773.391 520.699 755.49 522.289C710.614 524.803 671.079 556.176 642.317 588.287C636.47 594.814 628.781 602.477 626.041 610.962C623.13 619.982 623.443 632.31 622.459 641.854C620.875 656.597 618.937 671.299 616.646 685.949C615.772 691.613 614.67 697.389 613.51 702.999C612.28 708.948 609.38 716.319 609.875 722.429C609.982 723.751 610.317 724.554 611.095 725.65L612.228 726.182C613.621 725.375 614.034 724.401 614.453 722.858C615.897 717.55 616.154 711.679 617.004 706.215C618.148 698.866 619.916 691.482 621.788 684.281C630.378 651.25 646.527 618.717 669.635 593.394C674.378 588.195 680.027 582.241 686.128 578.642C687.337 577.929 688.359 577.548 689.749 577.41C691 577.955 690.874 578.015 691.397 579.299C691.019 581.973 671.075 600.668 667.624 604.835C660.372 613.593 653.993 623.335 648.508 633.287C636.32 655.402 628.489 678.937 623.562 703.664C621.904 711.987 621.304 720.701 619.323 728.921ZM515.136 437.088C501.863 450.952 423.748 546.988 423.55 558.464L424.047 559.182C425.311 558.958 425.887 558.218 426.745 557.331C433.196 550.667 439.075 543.268 445.308 536.38C469.067 510.124 492.155 483.272 516.245 457.318C516.703 462.26 517.233 467.195 517.832 472.121C496.632 495.413 476.825 520.112 456.662 544.296C446.549 556.425 431.084 572.775 423.127 585.789C423.359 588.227 423.311 591.228 424.281 593.479C426.818 591.287 428.712 588.385 430.903 585.851C436.067 579.881 441.626 574.06 446.986 568.245C462.033 551.918 477.608 536.052 492.743 519.796C500.613 511.343 509.068 500.803 517.147 493.056L517.607 509.495C494.837 533.906 472.527 558.742 450.689 583.99C442.525 593.34 433.288 602.25 425.796 612.133C426.18 615.428 426.617 618.666 427.274 621.918C439.164 609.426 451.516 597.381 464.304 585.809C468.248 582.261 472.462 577.864 476.939 575.032C469.14 584.5 461.207 594.099 452.77 603.008C444.673 611.559 436.099 619.568 427.832 627.936L429.311 636.365C445.824 617.919 463.54 600.541 480.82 582.822C493.16 570.169 505.12 557.15 517.452 544.492C517.82 550.342 518.027 556.201 518.073 562.063C508.785 571.731 499.935 581.809 490.716 591.542C479.641 603.235 436.166 645.961 432.146 656.49L432.362 657.46C436.242 657.579 447.749 646.159 450.994 643.107C468.18 626.941 483.924 609.394 500.708 592.848C506.297 586.974 511.533 580.574 517.354 574.948C518.538 594.905 517.923 615.011 517.831 635L518.011 697.135C517.978 709.923 516.59 725.275 517.608 737.798C517.803 740.196 518.232 742.648 519.829 744.521L520.801 744.621C522.645 743.049 522.91 739.893 523.082 737.609C523.605 730.666 523.163 723.519 523.085 716.553C522.999 706.318 522.971 696.082 522.999 685.847L523.004 568.374C529.09 562.771 534.666 556.554 540.363 550.559L568.679 520.802L591.003 497.471C595.709 492.578 600.951 487.648 605.068 482.244C604.949 478.584 604.823 474.953 604.429 471.311C582.076 493.637 560.64 516.93 538.743 539.707C533.165 545.509 527.99 551.821 522.24 557.435C522.334 551.137 522.269 544.838 522.045 538.544C541.336 519.55 559.757 499.637 578.562 480.161C586.831 471.597 594.949 462.333 603.88 454.481C602.425 444.765 602.031 434.466 599.799 424.932C582.856 441.797 566.096 458.845 549.522 476.072C540.375 485.704 531.694 496.008 522.056 505.132C522.013 499.293 522.135 493.385 521.845 487.556C536.146 473.614 549.872 459.055 563.886 444.828C571.37 437.23 579.149 429.95 586.688 422.415C590.749 418.355 594.499 413.931 598.655 409.978C597.263 402.796 596.119 395.445 594.325 388.359C569.406 414.529 545.014 441.194 521.162 468.339C521.112 462.935 520.926 457.48 521.055 452.079C544.182 425.739 568.203 400.045 591.75 374.064C590.814 369.429 589.848 364.8 588.852 360.178C574.186 373.725 560.024 387.806 546.393 402.393C537.435 411.854 528.397 421.334 520.005 431.302C518.885 412.059 519.853 392.793 519.419 373.537L516.262 240.062C515.985 222.966 515.59 205.872 515.076 188.781C514.915 182.103 515.517 175.23 514.933 168.588C514.733 166.319 514.39 163.804 512.697 162.156L510.416 161.65C508.093 174.038 510.116 188.024 510.389 200.637L512.209 283.198C512.366 288.974 513.2 294.756 513.299 300.503L514.7 368.284C514.768 373.894 513.977 379.589 513.945 385.241C513.91 402.531 514.307 419.819 515.136 437.088ZM420.417 733.362C414.297 730.436 408.436 727.722 401.449 728.581C391.523 732.141 383.499 738.109 374.257 742.832C383.101 747.81 392.868 751.039 402.665 753.566C410.443 755.125 418.205 756.628 426.142 757.086C424.538 749.089 423.091 741.088 420.417 733.362ZM734.071 513.565C733.137 504.06 732.322 494.585 730.245 485.243C720.825 442.876 695.753 401.715 662.132 374.251C651.652 365.69 621.387 346.5 608.523 343.857C619.035 399.598 626.837 456.129 628.39 512.879C628.814 527.745 628.778 542.619 628.282 557.483C627.992 567.722 627.317 578.061 627.496 588.297C639.71 570.628 664.436 549.074 682.327 537.182C699.196 526.862 715.059 519.192 734.071 513.565ZM513.511 155.054C523.546 162.83 530.862 175.562 536.894 186.614C564.602 237.384 583.375 307.811 595.054 364.723C598.868 383.303 602.445 401.669 604.843 420.499C615.42 503.571 610.858 587.561 598.697 670.184C596.375 686.525 593.755 702.822 590.838 719.067C588.595 731.548 585.824 744.126 584.281 756.708C588.29 756.778 592.384 757.023 596.379 756.676C599.825 749.75 608.723 697.381 610.458 686.677C618.239 638.674 623.541 589.759 624.01 541.09C624.759 463.44 612.658 382.067 594.572 306.737C589.06 283.779 583.288 261.059 575.771 238.65C564.751 205.8 542.876 153.194 513.259 133.398C513.228 140.616 513.095 147.846 513.511 155.054ZM626.411 751.358C630.291 749.893 634.251 748.527 637.959 746.663C628.869 740.012 619.222 734.074 608.252 731.088L602.606 756.258C610.742 755.128 618.491 753.6 626.411 751.358ZM289.445 512.985C310.988 518.357 329.239 527.711 347.237 540.589C369.619 557.796 381.503 572.05 399.984 592.938C398.281 570.144 396.558 547.425 396.416 524.553C396.201 489.647 399.207 454.694 403.237 420.05C405.428 401.213 408.752 382.535 412.067 363.87C412.664 360.509 416.276 345.375 415.899 343.47C415.837 343.156 415.659 342.876 415.54 342.579L415.137 342.455C371.837 362.802 339.898 388.394 315.947 430.257C309.659 441.248 304.134 452.377 299.832 464.303C294.168 480.005 291.013 496.397 289.445 512.985ZM432.085 757.31L435.122 757.18L446.685 756.345C438.569 729.465 434.265 701.57 429.468 673.953C421.425 627.652 414.761 581.194 413.572 534.141C411.47 450.986 425.543 364.373 449.124 284.797C459.043 251.327 470.46 218.847 486.975 187.987C492.329 177.982 499.945 162.946 508.999 156.25C509.015 149.54 509.686 141.711 508.24 135.151L507.576 134.825C448.815 190.853 418.749 336.517 408.691 415.851C404.788 448.266 402.397 480.846 401.526 513.484C400.45 560.645 405.838 608.299 412.697 654.893C415.201 672.962 418.073 690.979 421.311 708.931C424.215 724.606 426.83 742.341 432.085 757.31Z"/>
	<path transform="scale(1.0427 1.0427)" d="M199.351 658.238C202.207 657.697 204.959 659.581 205.487 662.44C206.016 665.299 204.119 668.042 201.258 668.558C198.414 669.07 195.692 667.187 195.167 664.347C194.642 661.506 196.512 658.775 199.351 658.238Z"/>
	<path transform="scale(1.0427 1.0427)" d="M176.266 645.079C178.813 644.615 181.268 646.26 181.808 648.792C182.348 651.325 180.777 653.828 178.262 654.443C176.567 654.858 174.78 654.318 173.599 653.033C172.417 651.749 172.028 649.923 172.583 648.269C173.138 646.614 174.549 645.392 176.266 645.079Z"/>
	<path transform="scale(1.0427 1.0427)" d="M182.265 624.252C183.653 623.579 185.298 623.714 186.559 624.604C187.82 625.493 188.497 626.998 188.328 628.532C188.158 630.066 187.169 631.387 185.744 631.98C183.626 632.863 181.191 631.9 180.249 629.807C179.307 627.715 180.2 625.253 182.265 624.252Z"/>
	<path transform="scale(1.0427 1.0427)" d="M158.135 635.793C159.272 635.117 160.686 635.109 161.831 635.772C162.976 636.434 163.674 637.664 163.654 638.987C163.635 640.31 162.902 641.519 161.739 642.149C159.989 643.095 157.803 642.467 156.822 640.736C155.841 639.006 156.424 636.809 158.135 635.793Z"/>
	<path transform="scale(1.0427 1.0427)" d="M310.918 610.324C314.99 609.73 318.781 612.522 319.422 616.587C320.063 620.651 317.314 624.475 313.257 625.162C310.591 625.613 307.889 624.597 306.181 622.501C304.472 620.405 304.023 617.553 305.003 615.033C305.983 612.513 308.242 610.715 310.918 610.324Z"/>
	<path transform="scale(1.0427 1.0427)" d="M281.714 593.173C283.171 592.589 284.829 592.837 286.051 593.823C287.272 594.809 287.865 596.378 287.601 597.925C287.337 599.472 286.258 600.756 284.779 601.281C282.555 602.071 280.108 600.937 279.273 598.729C278.439 596.521 279.524 594.052 281.714 593.173Z"/>
	<path transform="scale(1.0427 1.0427)" d="M844.156 643.801C846.555 642.747 849.358 643.799 850.47 646.172C851.582 648.545 850.597 651.372 848.251 652.541C846.683 653.322 844.814 653.192 843.369 652.201C841.924 651.21 841.129 649.514 841.293 647.77C841.456 646.025 842.552 644.506 844.156 643.801Z"/>
	<path transform="scale(1.0427 1.0427)" d="M821.093 655.577C823.613 655.047 826.095 656.626 826.684 659.132C827.273 661.639 825.754 664.158 823.262 664.806C821.597 665.24 819.827 664.737 818.639 663.492C817.451 662.248 817.03 660.457 817.539 658.813C818.049 657.17 819.409 655.931 821.093 655.577Z"/>
	<path transform="scale(1.0427 1.0427)" d="M835.195 624.915C837.015 624.939 839.299 624.99 840.612 626.473C841.172 627.106 841.493 627.846 841.486 628.68C841.469 630.935 840.147 632.177 838.682 633.696C837.187 633.962 835.908 633.967 834.622 633.102C833.607 632.418 833.289 631.495 833.132 630.325C832.833 628.091 833.947 626.607 835.195 624.915Z"/>
	<path transform="scale(1.0427 1.0427)" d="M862.732 634.178C864.872 633.505 867.154 634.684 867.843 636.819C868.533 638.953 867.373 641.244 865.244 641.951C863.091 642.666 860.767 641.489 860.07 639.33C859.372 637.171 860.568 634.858 862.732 634.178Z"/>
	<path transform="scale(1.0427 1.0427)" d="M709.22 611.265C712.326 610.132 715.761 611.743 716.877 614.855C717.994 617.967 716.365 621.394 713.247 622.494C710.152 623.586 706.756 621.972 705.648 618.882C704.54 615.793 706.136 612.389 709.22 611.265Z"/>
	<path transform="scale(1.0427 1.0427)" d="M736.163 608.184C738.362 607.659 740.592 608.923 741.271 611.08C741.95 613.236 740.846 615.55 738.743 616.38C737.244 616.971 735.541 616.676 734.328 615.615C733.115 614.554 732.596 612.905 732.982 611.341C733.368 609.776 734.595 608.559 736.163 608.184Z"/>
	<path transform="scale(1.0427 1.0427)" d="M739.15 587.759C741.273 586.994 743.621 588.048 744.46 590.143C745.299 592.238 744.328 594.621 742.263 595.533C740.862 596.151 739.235 595.956 738.02 595.024C736.805 594.091 736.196 592.57 736.431 591.056C736.667 589.543 737.709 588.279 739.15 587.759Z"/>
	<path transform="scale(1.0427 1.0427)" d="M568.048 240.748C568.702 240.989 569.12 241.147 569.606 241.691C574.483 247.145 591.655 306.432 590.153 314.397C588.958 314 588.553 313.963 587.835 312.856C585.836 309.774 582.698 294.021 581.344 289.094C577.624 275.555 571.994 262.516 568.592 248.909C567.894 246.119 567.196 243.584 568.048 240.748Z"/>
	<path fill="#D1D0CB" fill-opacity="0.031372551" transform="scale(1.0427 1.0427)" d="M88.2432 863.378L93.34 858.366L94.6519 860.001L88.2432 863.378Z"/>
	<path transform="scale(1.0427 1.0427)" d="M511.972 856.453C520.806 858.834 529.458 865.66 537.719 869.803C558.771 880.36 583.789 887.043 607.233 889.225C639.115 892.192 665.031 888.823 690.325 867.836C717.637 886.993 776.333 887.284 808.809 884.893C815.274 884.417 827.809 880.965 833.43 883.158C834.451 884.235 834.481 884.154 834.506 885.626C833.716 886.887 832.888 887.414 831.534 887.954C824.053 890.934 813.773 890.605 805.837 891.148C766.08 893.868 727.193 891.596 690.105 875.917C682.915 882.233 674.035 886.691 665.023 889.801C627.816 902.64 581.963 894.079 546.333 879.59C534.286 874.692 523.115 868.473 511.452 862.789C487.146 878.264 458.392 888.263 430.089 893.294C396.16 899.324 363.181 896.079 334.36 875.985C305.299 888.322 276.261 892.633 244.868 892.694C236.874 892.71 191.746 891.628 187.949 887.219C187.401 886.582 187.651 886.241 187.734 885.476C190.211 883.071 193.901 883.511 197.078 883.864C203.546 884.582 209.953 885.659 216.446 886.195C245.613 888.601 278.622 888.386 306.899 879.837C316.595 876.905 325.577 872.235 335.052 868.724C342.759 874.461 350.399 879.622 359.363 883.226C397.144 898.418 444.494 887.875 480.681 872.164C491.402 867.509 501.257 861.082 511.972 856.453Z"/>
</svg>
